<?xml version="1.0" encoding="utf-8"?><!-- Uploaded to: SVG Repo, www.svgrepo.com, Generator: SVG Repo Mixer Tools -->
<svg width="800px" height="800px" viewBox="-0.5 0 25 25" fill="none" xmlns="http://www.w3.org/2000/svg">
<path d="M6.5 10.61H6C5.72 10.61 5.5 10.83 5.5 11.11V21.5C5.5 21.78 5.72 22 6 22H18C18.28 22 18.5 21.78 18.5 21.5V11.11C18.5 10.83 18.28 10.61 18 10.61H17.5H10.5" stroke="#0F0F0F" stroke-miterlimit="10" stroke-linecap="round" stroke-linejoin="round"/>
<path d="M15.5 6.5C15.5 4.57 13.93 3 12 3C10.07 3 8.5 4.57 8.5 6.5V10.61" stroke="#0F0F0F" stroke-miterlimit="10" stroke-linecap="round" stroke-linejoin="round"/>
<path d="M12 16.75C12.5523 16.75 13 16.3023 13 15.75C13 15.1977 12.5523 14.75 12 14.75C11.4477 14.75 11 15.1977 11 15.75C11 16.3023 11.4477 16.75 12 16.75Z" stroke="#0F0F0F" stroke-miterlimit="10" stroke-linecap="round" stroke-linejoin="round"/>
<path d="M12 18.75V19.75" stroke="#0F0F0F" stroke-miterlimit="10" stroke-linecap="round" stroke-linejoin="round"/>
</svg>